<svg width="22" height="22" viewBox="0 0 22 22" fill="none" xmlns="http://www.w3.org/2000/svg">
<path d="M16.25 9.1795V11.8095C16.25 11.9795 16.24 12.1395 16.22 12.2995C16.07 14.0695 15.02 14.9496 13.1 14.9496H12.84C12.68 14.9496 12.52 15.0295 12.42 15.1595L11.63 16.2095C11.28 16.6795 10.72 16.6795 10.37 16.2095L9.58 15.1595C9.49 15.0495 9.3 14.9496 9.16 14.9496H8.89999C6.79999 14.9496 5.75 14.4295 5.75 11.7995V9.1696C5.75 7.24956 6.63999 6.19953 8.39999 6.04953C8.55999 6.02953 8.72001 6.01953 8.89001 6.01953H13.09C15.2 6.03953 16.25 7.08953 16.25 9.1795Z" stroke="#282828" stroke-width="1.25" stroke-miterlimit="10" stroke-linecap="round" stroke-linejoin="round"/>
<path d="M11 21C16.5228 21 21 16.5228 21 11C21 5.47715 16.5228 1 11 1C5.47715 1 1 5.47715 1 11C1 16.5228 5.47715 21 11 21Z" stroke="#282828" stroke-width="1.25" stroke-miterlimit="10" stroke-linecap="round" stroke-linejoin="round"/>
</svg>
