<svg width="24" height="24" viewBox="0 0 24 24" fill="none" xmlns="http://www.w3.org/2000/svg">
<path d="M8 12H16V13.1111H8V12ZM8 16.8889H12.8964V18H8V16.8889Z" fill="black"/>
<path d="M18.128 22H5.872C5.616 22 5.376 21.9506 5.136 21.8517C4.912 21.7529 4.704 21.6211 4.544 21.4399C4.368 21.2587 4.24 21.061 4.144 20.8304C4.048 20.5833 4 20.3362 4 20.0727V6.9438C4 6.68023 4.048 6.43314 4.144 6.18605C4.24 5.95543 4.368 5.74128 4.544 5.57655C4.72 5.39535 4.912 5.26357 5.136 5.16473C5.376 5.06589 5.616 5.01647 5.872 5.01647H7.728V5.98837H5.872C5.36 5.98837 4.928 6.41667 4.928 6.96027V20.0891C4.928 20.6163 5.344 21.061 5.872 21.061H18.112C18.624 21.061 19.056 20.6328 19.056 20.0891V6.9438C19.056 6.41667 18.64 5.9719 18.112 5.9719H16.272V5H18.128C18.384 5 18.624 5.04942 18.864 5.14826C19.088 5.24709 19.296 5.37888 19.456 5.56008C19.632 5.74128 19.76 5.93895 19.856 6.16957C19.952 6.41667 20 6.66376 20 6.92733V20.0562C20 20.3198 19.952 20.5669 19.856 20.814C19.76 21.0446 19.632 21.2587 19.456 21.4235C19.28 21.6047 19.088 21.7364 18.864 21.8353C18.624 21.9506 18.384 22 18.128 22Z" fill="black"/>
<path d="M15.9729 7H8V4.29577C8 3.71831 8.44746 3.25352 9.00339 3.25352H10.0339C10.4 2.49296 11.1593 2 12 2C12.8407 2 13.6 2.49296 13.9661 3.25352H14.9966C15.5525 3.25352 16 3.71831 16 4.29577L15.9729 7ZM8.8 6.16901H15.1864V4.29577C15.1864 4.1831 15.0915 4.08451 14.9831 4.08451H13.3966L13.3017 3.80282C13.1119 3.22535 12.5831 2.83099 11.9864 2.83099C11.3898 2.83099 10.861 3.22535 10.6712 3.80282L10.5763 4.08451H8.98983C8.88136 4.08451 8.78644 4.1831 8.78644 4.29577V6.16901H8.8Z" fill="black"/>
</svg>
