<svg width="24" height="24" viewBox="0 0 24 24" fill="none" xmlns="http://www.w3.org/2000/svg">
<mask id="mask0_27_385" style="mask-type:luminance" maskUnits="userSpaceOnUse" x="0" y="0" width="24" height="24">
<path d="M24 0H0V24H24V0Z" fill="white"/>
</mask>
<g mask="url(#mask0_27_385)">
<path d="M10.2686 2.96777C11.3067 2.53932 12.4514 2.51272 13.5029 2.8877L13.7119 2.96777L13.7139 2.96875L17.7646 4.61914V4.61816C17.9793 4.70664 18.0544 4.96646 17.9463 5.15332L17.8877 5.22852L6.14844 16.9678C6.00263 17.1136 5.76849 17.1139 5.62109 16.9795L5.56348 16.9141C4.38863 15.198 3.7051 13.1805 3.70508 11.1201V6.73047C3.70508 6.46966 3.80799 6.1508 4.00488 5.85645C4.17717 5.59887 4.3932 5.40187 4.60547 5.29102L4.69629 5.24902L4.69727 5.24805L10.2666 2.96875L10.2686 2.96777Z" stroke="#282828" stroke-width="1.25"/>
<path d="M19.6738 7.5166C19.9081 7.31856 20.2851 7.47927 20.2852 7.80957V11.1191C20.2852 15.5742 17.1389 19.7875 12.7705 21.1992L12.3457 21.3262C12.1802 21.3713 11.9993 21.3836 11.8193 21.3604L11.6396 21.3252C10.4685 20.9941 9.37064 20.4686 8.40234 19.7881L7.99414 19.4863L7.99121 19.4844L7.92969 19.4258C7.80434 19.2769 7.80954 19.0563 7.94629 18.916L7.94727 18.917C10 16.8172 15.7133 10.9961 19.041 8.06348L19.6729 7.51758L19.6738 7.5166Z" stroke="#282828" stroke-width="1.25"/>
</g>
</svg>
