<svg width="22" height="22" viewBox="0 0 22 22" fill="none" xmlns="http://www.w3.org/2000/svg">
<path d="M11 21.7193C5.09003 21.7193 0.280029 16.9093 0.280029 10.9993C0.280029 5.0893 5.09003 0.279297 11 0.279297C13.65 0.279297 16.19 1.2593 18.15 3.0293C20.42 5.0393 21.72 7.9493 21.72 10.9993C21.72 14.0493 20.42 16.9593 18.14 18.9793C16.19 20.7493 13.65 21.7193 11 21.7193ZM11 1.7793C5.91003 1.7793 1.78003 5.9193 1.78003 10.9993C1.78003 16.0793 5.92003 20.2193 11 20.2193C13.28 20.2193 15.46 19.3793 17.15 17.8493C19.11 16.1093 20.23 13.6193 20.23 10.9893C20.23 8.3593 19.11 5.8693 17.16 4.1393C15.46 2.6193 13.28 1.7793 11 1.7793Z" fill="#282828"/>
<path d="M9.44 17.9104C9.07 17.9104 8.68003 17.8304 8.30003 17.6804C5.56003 16.5804 3.78003 13.9504 3.78003 11.0004C3.78003 8.05037 5.55003 5.42038 8.30003 4.32038C9.17 3.97038 10.05 4.02038 10.71 4.46038C11.35 4.89038 11.71 5.65038 11.73 6.60038V15.3904V15.4004C11.72 16.3504 11.36 17.1204 10.71 17.5404C10.34 17.7904 9.9 17.9104 9.44 17.9104ZM9.44 5.59038C9.26 5.59038 9.06 5.63038 8.86003 5.71038C6.68003 6.58038 5.28003 8.66037 5.28003 11.0004C5.28003 13.3404 6.68003 15.4204 8.86003 16.2904C9.26 16.4504 9.64 16.4504 9.88 16.3004C10.16 16.1104 10.22 15.7004 10.23 15.3904V6.61038C10.23 6.31038 10.16 5.89038 9.88 5.70038C9.76 5.63038 9.61 5.59038 9.44 5.59038Z" fill="#282828"/>
</svg>
