<svg width="21" height="22" viewBox="0 0 21 22" fill="none" xmlns="http://www.w3.org/2000/svg">
<path d="M0.873901 0.936462H2.56628C2.86092 0.936547 3.14744 1.02701 3.38757 1.19427L3.48718 1.27045C3.71319 1.45913 3.87474 1.71206 3.95203 1.99408L3.98035 2.11713L4.43835 4.6347L4.44812 4.68646H19.6239C19.6994 4.68645 19.7744 4.69839 19.8456 4.7226L19.9149 4.75092C19.9833 4.78288 20.0463 4.82581 20.1005 4.87787L20.1512 4.93353H20.1522C20.217 5.01052 20.2638 5.10099 20.2899 5.19818C20.3095 5.27112 20.3173 5.3468 20.3124 5.42181L20.3026 5.49701L19.163 11.7646C19.0828 12.2058 18.8694 12.6106 18.5536 12.9247L18.413 13.0536C18.0197 13.3819 17.5229 13.5614 17.0106 13.5615H6.0614L6.07507 13.6347L6.37195 15.2695C6.40601 15.4566 6.50428 15.6261 6.65027 15.748C6.75984 15.8395 6.89119 15.8993 7.03015 15.9238L7.17078 15.9365H16.2489C16.6924 15.9365 17.1275 16.051 17.5116 16.2685L17.6727 16.3681C18.0413 16.6144 18.3384 16.9517 18.537 17.3456L18.6161 17.5185C18.81 17.9867 18.8614 18.5019 18.7626 18.999C18.6637 19.496 18.4188 19.9521 18.0604 20.3105C17.7021 20.6689 17.246 20.9138 16.7489 21.0126C16.314 21.0991 15.8652 21.0708 15.4462 20.9326L15.2684 20.8661C14.8587 20.6964 14.501 20.4239 14.2294 20.0761L14.118 19.9228C13.8365 19.5014 13.6864 19.0058 13.6864 18.499L13.6903 18.3564C13.7058 18.0728 13.769 17.7939 13.8768 17.5312L13.9344 17.4013L13.9774 17.3115H9.52136L9.56335 17.4003C9.76658 17.8278 9.84721 18.3037 9.79675 18.7744C9.7526 19.186 9.6095 19.5798 9.38074 19.9228L9.27722 20.0673C9.02428 20.3948 8.69636 20.6555 8.32214 20.8281L8.15808 20.8964C7.71563 21.0643 7.2353 21.1069 6.77039 21.0185C6.36358 20.9411 5.98243 20.7665 5.65906 20.5107L5.52429 20.3964C5.21803 20.1176 4.98438 19.7691 4.84265 19.3818L4.78796 19.2138C4.6728 18.8159 4.65527 18.3964 4.73718 17.9921L4.77917 17.8203C4.90489 17.3642 5.15418 16.9518 5.49988 16.6288L5.54382 16.5878L5.50476 16.5419C5.28654 16.2851 5.13113 15.9819 5.04968 15.6562L5.01941 15.5146L2.62292 2.36322L2.61316 2.31146H0.873901C0.737085 2.31146 0.60422 2.27106 0.492065 2.19623L0.387573 2.11029C0.258642 1.98136 0.186401 1.8063 0.186401 1.62396C0.186401 1.48715 0.226804 1.35428 0.301636 1.24213L0.387573 1.13763C0.484252 1.04096 0.607018 0.97656 0.739136 0.950134L0.873901 0.936462ZM7.2489 17.3115C7.07283 17.3115 6.89998 17.3511 6.74207 17.4257L6.58875 17.5117C6.44249 17.6094 6.32015 17.738 6.23035 17.8876L6.15222 18.0449C6.08488 18.2075 6.05391 18.3822 6.06238 18.5566L6.08386 18.7304C6.11823 18.9032 6.19078 19.0656 6.2948 19.206L6.40906 19.3388C6.53366 19.4634 6.68397 19.5582 6.84851 19.6171L7.01746 19.664C7.19011 19.6983 7.36761 19.6936 7.53699 19.6513L7.703 19.5956C7.8658 19.5282 8.01138 19.4263 8.12878 19.2968L8.23621 19.1591C8.36669 18.9638 8.4364 18.7338 8.4364 18.499C8.4364 18.2234 8.341 17.9573 8.16785 17.746L8.08875 17.6591C7.86605 17.4364 7.56385 17.3115 7.2489 17.3115ZM16.2489 17.3115C16.0728 17.3115 15.9 17.3511 15.7421 17.4257L15.5887 17.5117C15.4425 17.6094 15.3201 17.738 15.2303 17.8876L15.1522 18.0449C15.0849 18.2075 15.0539 18.3822 15.0624 18.5566L15.0839 18.7304C15.1182 18.9032 15.1908 19.0656 15.2948 19.206L15.4091 19.3388C15.5337 19.4634 15.684 19.5582 15.8485 19.6171L16.0175 19.664C16.1901 19.6983 16.3676 19.6936 16.537 19.6513L16.703 19.5956C16.8658 19.5282 17.0114 19.4263 17.1288 19.2968L17.2362 19.1591C17.3667 18.9638 17.4364 18.7338 17.4364 18.499C17.4364 18.2234 17.341 17.9573 17.1678 17.746L17.0887 17.6591C16.866 17.4364 16.5638 17.3115 16.2489 17.3115ZM4.71179 6.1347L5.80164 12.1347L5.8114 12.1865H17.0087V12.1855C17.1515 12.1859 17.2913 12.15 17.4139 12.08L17.5302 11.999C17.6402 11.9074 17.7242 11.7889 17.7733 11.6562L17.8104 11.5195L18.786 6.1347L18.7997 6.06146H4.69812L4.71179 6.1347Z" fill="white" stroke="white" stroke-width="0.125"/>
</svg>
