<svg width="20" height="20" viewBox="0 0 20 20" fill="none" xmlns="http://www.w3.org/2000/svg">
<path d="M17.09 12.4412V16.8812C17.0898 17.5094 16.8401 18.1118 16.3959 18.5561C15.9516 19.0003 15.3492 19.25 14.721 19.2502H3.12002C2.80777 19.2501 2.49863 19.1883 2.21035 19.0683C1.92208 18.9483 1.66035 18.7726 1.44021 18.5511C1.22007 18.3297 1.04586 18.0669 0.927584 17.7779C0.80931 17.489 0.749306 17.1795 0.751018 16.8672V5.27922C0.74916 4.96747 0.809194 4.65845 0.927639 4.37007C1.04608 4.08169 1.22059 3.81968 1.44103 3.59924C1.66148 3.37879 1.92348 3.20429 2.21186 3.08584C2.50025 2.9674 2.80927 2.90736 3.12102 2.90922H7.56002" stroke="#1A1A1A" stroke-width="1.5" stroke-linecap="round" stroke-linejoin="round"/>
<path d="M17.09 6.99521L13.005 2.90921M4.83496 13.8032V11.6382C4.83696 11.2812 4.97896 10.9382 5.22996 10.6852L14.762 1.15321C14.8884 1.02532 15.039 0.923784 15.205 0.854488C15.371 0.785192 15.5491 0.749512 15.729 0.749512C15.9088 0.749512 16.0869 0.785192 16.2529 0.854488C16.4189 0.923784 16.5695 1.02532 16.696 1.15321L18.847 3.30421C18.9749 3.43069 19.0764 3.58128 19.1457 3.74727C19.215 3.91326 19.2507 4.09134 19.2507 4.27121C19.2507 4.45108 19.215 4.62917 19.1457 4.79515C19.0764 4.96114 18.9749 5.11173 18.847 5.23821L9.31496 14.7702C9.0615 15.0219 8.71918 15.1638 8.36196 15.1652H6.19696C6.01803 15.1655 5.8408 15.1304 5.67544 15.0621C5.51007 14.9937 5.35982 14.8934 5.2333 14.7669C5.10677 14.6404 5.00646 14.4901 4.9381 14.3247C4.86975 14.1594 4.8347 13.9821 4.83496 13.8032Z" stroke="#1A1A1A" stroke-width="1.5" stroke-linecap="round" stroke-linejoin="round"/>
</svg>
