<svg width="22" height="20" viewBox="0 0 22 20" fill="none" xmlns="http://www.w3.org/2000/svg">
<path fill-rule="evenodd" clip-rule="evenodd" d="M15 15.5C15 15.0858 15.3358 14.75 15.75 14.75H20.75C21.1642 14.75 21.5 15.0858 21.5 15.5C21.5 15.9142 21.1642 16.25 20.75 16.25H15.75C15.3358 16.25 15 15.9142 15 15.5Z" fill="#3F3F3F"/>
<path fill-rule="evenodd" clip-rule="evenodd" d="M6.5 4.5C6.5 4.08579 6.1642 3.75 5.75 3.75H0.749997C0.335797 3.75 -2.86102e-06 4.08579 -2.86102e-06 4.5C-2.86102e-06 4.91421 0.335797 5.25 0.749997 5.25H5.75C6.1642 5.25 6.5 4.91421 6.5 4.5Z" fill="#3F3F3F"/>
<path fill-rule="evenodd" clip-rule="evenodd" d="M0 15.5C0 15.0858 0.3358 14.75 0.75 14.75H9.75C10.1642 14.75 10.5 15.0858 10.5 15.5C10.5 15.9142 10.1642 16.25 9.75 16.25H0.75C0.3358 16.25 0 15.9142 0 15.5Z" fill="#3F3F3F"/>
<path fill-rule="evenodd" clip-rule="evenodd" d="M21.5 4.5C21.5 4.08579 21.1642 3.75 20.75 3.75H11.75C11.3358 3.75 11 4.08579 11 4.5C11 4.91421 11.3358 5.25 11.75 5.25H20.75C21.1642 5.25 21.5 4.91421 21.5 4.5Z" fill="#3F3F3F"/>
<path fill-rule="evenodd" clip-rule="evenodd" d="M16.5 13.5C16.5 12.5335 15.7165 11.75 14.75 11.75H10.75C9.7835 11.75 9 12.5335 9 13.5V17.5C9 18.4665 9.7835 19.25 10.75 19.25H14.75C15.7165 19.25 16.5 18.4665 16.5 17.5V13.5ZM14.75 13.25C14.8881 13.25 15 13.3619 15 13.5V17.5C15 17.6381 14.8881 17.75 14.75 17.75H10.75C10.6119 17.75 10.5 17.6381 10.5 17.5V13.5C10.5 13.3619 10.6119 13.25 10.75 13.25H14.75Z" fill="#3F3F3F"/>
<path fill-rule="evenodd" clip-rule="evenodd" d="M5 2.5C5 1.5335 5.7835 0.75 6.75 0.75H10.75C11.7165 0.75 12.5 1.5335 12.5 2.5V6.5C12.5 7.4665 11.7165 8.25 10.75 8.25H6.75C5.7835 8.25 5 7.4665 5 6.5V2.5ZM6.75 2.25C6.6119 2.25 6.5 2.36193 6.5 2.5V6.5C6.5 6.63807 6.6119 6.75 6.75 6.75H10.75C10.8881 6.75 11 6.63807 11 6.5V2.5C11 2.36193 10.8881 2.25 10.75 2.25H6.75Z" fill="#3F3F3F"/>
</svg>
