<svg width="16" height="24" viewBox="0 0 16 24" fill="none" xmlns="http://www.w3.org/2000/svg">
<path fill-rule="evenodd" clip-rule="evenodd" d="M8.247 20.969C9.39711 19.9254 10.4615 18.7911 11.43 17.577C13.47 15.014 14.711 12.487 14.795 10.24C14.8282 9.32679 14.6771 8.41626 14.3505 7.56278C14.024 6.7093 13.5288 5.9304 12.8945 5.27259C12.2602 4.61478 11.4998 4.09157 10.6588 3.7342C9.81775 3.37684 8.91331 3.19265 7.9995 3.19265C7.08569 3.19265 6.18125 3.37684 5.34022 3.7342C4.49918 4.09157 3.73881 4.61478 3.10451 5.27259C2.4702 5.9304 1.975 6.7093 1.64846 7.56278C1.32192 8.41626 1.17076 9.32679 1.204 10.24C1.289 12.487 2.531 15.014 4.57 17.577C5.53846 18.7911 6.60289 19.9254 7.753 20.969C7.86367 21.069 7.946 21.1417 8 21.187L8.247 20.969ZM7.262 22.134C7.262 22.134 0 16.018 0 10C0 7.87827 0.842855 5.84344 2.34315 4.34315C3.84344 2.84285 5.87827 2 8 2C10.1217 2 12.1566 2.84285 13.6569 4.34315C15.1571 5.84344 16 7.87827 16 10C16 16.018 8.738 22.134 8.738 22.134C8.334 22.506 7.669 22.502 7.262 22.134ZM8 12.8C8.74261 12.8 9.4548 12.505 9.9799 11.9799C10.505 11.4548 10.8 10.7426 10.8 10C10.8 9.25739 10.505 8.5452 9.9799 8.0201C9.4548 7.495 8.74261 7.2 8 7.2C7.25739 7.2 6.5452 7.495 6.0201 8.0201C5.495 8.5452 5.2 9.25739 5.2 10C5.2 10.7426 5.495 11.4548 6.0201 11.9799C6.5452 12.505 7.25739 12.8 8 12.8ZM8 14C6.93913 14 5.92172 13.5786 5.17157 12.8284C4.42143 12.0783 4 11.0609 4 10C4 8.93913 4.42143 7.92172 5.17157 7.17157C5.92172 6.42143 6.93913 6 8 6C9.06087 6 10.0783 6.42143 10.8284 7.17157C11.5786 7.92172 12 8.93913 12 10C12 11.0609 11.5786 12.0783 10.8284 12.8284C10.0783 13.5786 9.06087 14 8 14Z" fill="black"/>
</svg>
