<svg width="22" height="22" viewBox="0 0 22 22" fill="none" xmlns="http://www.w3.org/2000/svg">
<path d="M1.76001 10.2207V14.7107C1.76001 19.2007 3.56001 21.0007 8.05001 21.0007H13.44C17.93 21.0007 19.73 19.2007 19.73 14.7107V10.2207" stroke="#FF650E" stroke-width="1.5" stroke-linecap="round" stroke-linejoin="round"/>
<path d="M10.75 11C12.58 11 13.93 9.51 13.75 7.68L13.09 1H8.41999L7.74999 7.68C7.56999 9.51 8.92 11 10.75 11Z" stroke="#FF650E" stroke-width="1.5" stroke-linecap="round" stroke-linejoin="round"/>
<path d="M17.06 11C19.08 11 20.56 9.36 20.36 7.35L20.08 4.6C19.72 2 18.72 1 16.1 1H13.05L13.75 8.01C13.92 9.66 15.41 11 17.06 11Z" stroke="#FF650E" stroke-width="1.5" stroke-linecap="round" stroke-linejoin="round"/>
<path d="M4.39 11C6.04 11 7.53 9.66 7.69 8.01L7.91 5.8L8.39001 1H5.34C2.72001 1 1.72 2 1.36 4.6L1.09 7.35C0.890005 9.36 2.37 11 4.39 11Z" stroke="#FF650E" stroke-width="1.5" stroke-linecap="round" stroke-linejoin="round"/>
<path d="M10.75 16C9.08 16 8.25 16.83 8.25 18.5V21H13.25V18.5C13.25 16.83 12.42 16 10.75 16Z" stroke="#FF650E" stroke-width="1.5" stroke-linecap="round" stroke-linejoin="round"/>
</svg>
