<svg width="20" height="22" viewBox="0 0 20 22" fill="none" xmlns="http://www.w3.org/2000/svg">
<path d="M8.01286 18.7174L11.5129 20.6029C11.846 20.7823 12.25 20.5411 12.25 20.1627V11.4993C12.25 11.3731 12.2977 11.2516 12.3835 11.1592L18.8665 4.17416C18.9523 4.08169 19 3.96019 19 3.83403V1.5C19 1.22386 18.7761 1 18.5 1H1.5C1.22386 1 1 1.22386 1 1.5V3.85568C1 3.96875 1.03832 4.07848 1.10872 4.16696L7.64128 12.3785C7.71168 12.467 7.75 12.5767 7.75 12.6898V18.2772C7.75 18.4611 7.85096 18.6301 8.01286 18.7174Z" stroke="black" stroke-width="1.5"/>
</svg>
