<svg width="17" height="20" viewBox="0 0 17 20" fill="none" xmlns="http://www.w3.org/2000/svg">
<path d="M0.835986 7.80604L7.83599 1.58968C8.21476 1.25331 8.78524 1.25331 9.16401 1.58968L16.164 7.80604C16.3777 7.99582 16.5 8.26796 16.5 8.55377V16.4848C16.5 17.8597 15.3897 18.9766 14.0148 18.9848L11.9503 18.997C11.673 18.9987 11.4474 18.7743 11.4474 18.497V13.2835C11.4474 12.7312 10.9997 12.2835 10.4474 12.2835H6.55263C6.00035 12.2835 5.55263 12.7312 5.55263 13.2835V18.47C5.55263 18.7461 5.32877 18.97 5.05263 18.97H3C1.61929 18.97 0.5 17.8507 0.5 16.47V8.55376C0.5 8.26796 0.622287 7.99582 0.835986 7.80604Z" fill="#FF650E" stroke="#FF650E"/>
</svg>
