<svg width="19" height="18" viewBox="0 0 19 18" fill="none" xmlns="http://www.w3.org/2000/svg">
<path d="M16.5 18H2.5C1.39543 18 0.466748 17.0913 0.706222 16.013C1.94594 10.4308 8.39174 10.125 9.5 10.125C10.6083 10.125 17.0541 10.4308 18.2938 16.013C18.5333 17.0913 17.6046 18 16.5 18Z" fill="#FF650E"/>
<path fill-rule="evenodd" clip-rule="evenodd" d="M9.49996 7.5C11.5711 7.5 13.2496 5.82144 13.2496 3.75041C13.2496 1.67937 11.5711 0 9.49996 0C7.42898 0 5.74963 1.67937 5.74963 3.75041C5.74263 5.81445 7.40956 7.49307 9.47355 7.5C9.48287 7.5 9.49142 7.5 9.49996 7.5Z" fill="#FF650E"/>
</svg>
