<svg width="19" height="20" viewBox="0 0 19 20" fill="none" xmlns="http://www.w3.org/2000/svg">
<path d="M16.5 19H2.5C1.39543 19 0.466748 18.0913 0.706222 17.013C1.94594 11.4308 8.39174 11.125 9.5 11.125C10.6083 11.125 17.0541 11.4308 18.2938 17.013C18.5333 18.0913 17.6046 19 16.5 19Z" stroke="#1A1A1A"/>
<path fill-rule="evenodd" clip-rule="evenodd" d="M9.49996 8.5C11.5711 8.5 13.2496 6.82144 13.2496 4.75041C13.2496 2.67937 11.5711 1 9.49996 1C7.42898 1 5.74963 2.67937 5.74963 4.75041C5.74263 6.81445 7.40956 8.49308 9.47355 8.5C9.48287 8.5 9.49142 8.5 9.49996 8.5Z" stroke="#1A1A1A" stroke-linecap="round" stroke-linejoin="round"/>
</svg>
