<svg width="19" height="19" viewBox="0 0 19 19" fill="none" xmlns="http://www.w3.org/2000/svg">
<path d="M1.36403 14.455C0.506033 11.023 0.0770329 9.308 0.978032 8.154C1.87903 7 3.64803 7 7.18503 7H11.815C15.353 7 17.121 7 18.022 8.154C18.923 9.308 18.494 11.024 17.636 14.455C17.09 16.638 16.818 17.729 16.004 18.365C15.19 19 14.065 19 11.815 19H7.18503C4.93503 19 3.81003 19 2.99603 18.365C2.18203 17.729 1.90903 16.638 1.36403 14.455Z" fill="#FF650E"/>
<path d="M16.9587 7.39111L16.2898 4.895C16.0158 3.89 15.8788 3.388 15.5978 3.009C15.3177 2.63246 14.9372 2.3424 14.4998 2.172C14.0598 2 13.5398 2 12.4998 2M2.04106 7.39111L2.70985 4.895C2.98385 3.89 3.12085 3.388 3.40185 3.009C3.68202 2.63246 4.06254 2.3424 4.49985 2.172C4.93985 2 5.45985 2 6.49985 2" stroke="#FF650E" stroke-linecap="round"/>
<path d="M6.5 2C6.5 1.73478 6.60536 1.48043 6.79289 1.29289C6.98043 1.10536 7.23478 1 7.5 1H11.5C11.7652 1 12.0196 1.10536 12.2071 1.29289C12.3946 1.48043 12.5 1.73478 12.5 2C12.5 2.26522 12.3946 2.51957 12.2071 2.70711C12.0196 2.89464 11.7652 3 11.5 3H7.5C7.23478 3 6.98043 2.89464 6.79289 2.70711C6.60536 2.51957 6.5 2.26522 6.5 2Z" stroke="#FF650E"/>
<path d="M4.98877 10.7747V10.7747C7.2727 13.0586 10.9757 13.0586 13.2596 10.7747V10.7747" stroke="#E7E7E7" stroke-linecap="round"/>
</svg>
