<svg width="21" height="20" viewBox="0 0 21 20" fill="none" xmlns="http://www.w3.org/2000/svg">
<path d="M2.364 14.455C1.506 11.023 1.077 9.308 1.978 8.154C2.879 7 4.648 7 8.185 7H12.815C16.353 7 18.121 7 19.022 8.154C19.923 9.308 19.494 11.024 18.636 14.455C18.09 16.638 17.818 17.729 17.004 18.365C16.19 19 15.065 19 12.815 19H8.185C5.935 19 4.81 19 3.996 18.365C3.182 17.729 2.909 16.638 2.364 14.455Z" stroke="#1A1A1A"/>
<path d="M17.9587 7.39111L17.2899 4.895C17.0159 3.89 16.8789 3.388 16.5979 3.009C16.3177 2.63246 15.9372 2.3424 15.4999 2.172C15.0599 2 14.5399 2 13.4999 2M3.04112 7.39111L3.70991 4.895C3.98391 3.89 4.12091 3.388 4.40191 3.009C4.68209 2.63246 5.0626 2.3424 5.49991 2.172C5.93991 2 6.45991 2 7.49991 2" stroke="#1A1A1A" stroke-linecap="round"/>
<path d="M7.49994 2C7.49994 1.73478 7.6053 1.48043 7.79283 1.29289C7.98037 1.10536 8.23472 1 8.49994 1H12.4999C12.7652 1 13.0195 1.10536 13.207 1.29289C13.3946 1.48043 13.4999 1.73478 13.4999 2C13.4999 2.26522 13.3946 2.51957 13.207 2.70711C13.0195 2.89464 12.7652 3 12.4999 3H8.49994C8.23472 3 7.98037 2.89464 7.79283 2.70711C7.6053 2.51957 7.49994 2.26522 7.49994 2Z" stroke="#1A1A1A"/>
<path d="M5.98862 10.7744V10.7744C8.27254 13.0583 11.9755 13.0583 14.2595 10.7744V10.7744" stroke="#1A1A1A" stroke-linecap="round"/>
</svg>
