<svg width="17" height="25" viewBox="0 0 17 25" fill="none" xmlns="http://www.w3.org/2000/svg">
<path d="M16.0447 8.02233C16.0447 14.0013 10.3544 17.3407 8.375 21.3938C8.23174 21.6872 7.81292 21.6872 7.66966 21.3938C5.69031 17.3407 0 14.0013 0 8.02233C0 3.59181 3.59181 0 8.02233 0C12.4529 0 16.0447 3.59181 16.0447 8.02233Z" fill="#FF2727"/>
<path d="M8.02246 13.471C11.0317 13.471 13.4712 11.0315 13.4712 8.02228C13.4712 5.01303 11.0317 2.57355 8.02246 2.57355C5.01321 2.57355 2.57373 5.01303 2.57373 8.02228C2.57373 11.0315 5.01321 13.471 8.02246 13.471Z" fill="#F6F6F6"/>
<path d="M11.3083 20.3865C10.784 20.2382 10.244 20.1556 9.70596 20.0996C9.70596 20.0996 9.70596 20.0996 9.7058 20.0996C9.59856 20.2504 9.49538 20.4013 9.39674 20.5526C10.166 20.6956 10.9179 20.9627 11.5851 21.3506C11.7527 21.4525 12.1217 21.7143 12.0982 21.9186C12.0729 22.0043 12.0234 22.0527 11.9444 22.124C11.8918 22.1688 11.8276 22.213 11.7561 22.2548C10.668 22.8808 8.08708 22.9432 6.80926 22.8483C6.21188 22.8012 5.62089 22.7186 5.05051 22.5549C4.7814 22.4752 4.5279 22.3835 4.2936 22.2483C4.17106 22.1766 3.93879 22.0179 3.94362 21.8788C3.97266 21.6702 4.27345 21.4558 4.45687 21.3442C5.11264 20.9684 5.88266 20.7142 6.66034 20.5705C6.55373 20.4065 6.44164 20.2431 6.32504 20.0796C5.78979 20.1392 5.25904 20.2374 4.7369 20.3867C4.00917 20.6094 3.04278 21.0293 2.99798 21.9186C2.9805 22.5612 3.51061 23.0406 4.01448 23.3325C5.2016 24.0031 6.67923 24.2178 8.0226 24.2443C9.39954 24.2535 10.8133 24.0165 12.0275 23.3263C12.5281 23.032 13.0596 22.5602 13.0472 21.9186C13.0088 21.0268 12.0454 20.5985 11.3083 20.3865Z" fill="#FF2727"/>
</svg>
