<svg width="18" height="19" viewBox="0 0 18 19" fill="none" xmlns="http://www.w3.org/2000/svg">
<path d="M16.95 18.7337C14.8667 18.7337 12.8083 18.2797 10.775 17.3717C8.74167 16.4637 6.89167 15.176 5.225 13.5087C3.55833 11.8413 2.271 9.99133 1.363 7.95866C0.455 5.92599 0.000666667 3.86766 0 1.78366C0 1.48366 0.0999999 1.23366 0.3 1.03366C0.5 0.833658 0.75 0.733658 1.05 0.733658H5.1C5.33333 0.733658 5.54167 0.812991 5.725 0.971658C5.90833 1.13032 6.01667 1.31766 6.05 1.53366L6.7 5.03366C6.73333 5.30032 6.725 5.52532 6.675 5.70866C6.625 5.89199 6.53333 6.05032 6.4 6.18366L3.975 8.63366C4.30833 9.25032 4.704 9.84599 5.162 10.4207C5.62 10.9953 6.12433 11.5497 6.675 12.0837C7.19167 12.6003 7.73333 13.0797 8.3 13.5217C8.86667 13.9637 9.46667 14.3677 10.1 14.7337L12.45 12.3837C12.6 12.2337 12.796 12.1213 13.038 12.0467C13.28 11.972 13.5173 11.951 13.75 11.9837L17.2 12.6837C17.4333 12.7503 17.625 12.8713 17.775 13.0467C17.925 13.222 18 13.4177 18 13.6337V17.6837C18 17.9837 17.9 18.2337 17.7 18.4337C17.5 18.6337 17.25 18.7337 16.95 18.7337Z" fill="#32BB78"/>
</svg>
